<?xml version="1.0" encoding="utf-8"?>
<!-- Generator: Adobe Illustrator 25.2.1, SVG Export Plug-In . SVG Version: 6.00 Build 0)  -->
<svg version="1.1" id="Camada_1" xmlns="http://www.w3.org/2000/svg" xmlns:xlink="http://www.w3.org/1999/xlink" x="0px" y="0px"
	 viewBox="0 0 720 720" style="enable-background:new 0 0 720 720;" xml:space="preserve">
<style type="text/css">
	.st0{fill:#10233C;}
	.st1{fill:#162F50;}
	.st2{fill:#F8AD00;}
	.st3{fill:#85BD57;}
</style>
<g>
	<rect x="388.77" y="337.05" class="st0" width="96.95" height="19.16"/>
	<rect x="226.82" y="337.05" class="st0" width="96.95" height="19.16"/>
	<rect x="388.77" y="294.2" class="st0" width="96.95" height="17.65"/>
	<rect x="226.82" y="294.2" class="st0" width="96.95" height="17.65"/>
	<path class="st1" d="M388.18,341.61h98.14c7.8,0,14.44-5.56,14.44-12.12v-9.57c0-6.56-6.63-12.12-14.44-12.12h-98.14
		c-7.83,0-14.47,5.56-14.47,12.12v9.57C373.71,336.05,380.35,341.61,388.18,341.61L388.18,341.61z M388.18,341.61"/>
	<path class="st2" d="M486.91,324.45c0,3.63-3.5,6.56-7.83,6.56c-4.3,0-7.8-2.93-7.8-6.56c0-3.62,3.5-6.56,7.8-6.56
		C483.41,317.89,486.91,320.83,486.91,324.45L486.91,324.45z M486.91,324.45"/>
	<path class="st3" d="M465.25,324.45c0,3.63-3.5,6.56-7.83,6.56c-4.33,0-7.83-2.93-7.83-6.56c0-3.62,3.5-6.56,7.83-6.56
		C461.75,317.89,465.25,320.83,465.25,324.45L465.25,324.45z M465.25,324.45"/>
	<rect x="388.77" y="250.34" class="st0" width="96.95" height="17.65"/>
	<path class="st1" d="M388.18,385.47h98.14c7.8,0,14.44-5.56,14.44-12.12v-9.57c0-6.56-6.63-12.09-14.44-12.09h-98.14
		c-7.83,0-14.47,5.53-14.47,12.09v9.57C373.71,379.91,380.35,385.47,388.18,385.47L388.18,385.47z M388.18,385.47"/>
	<path class="st2" d="M486.91,368.31c0,3.63-3.5,6.56-7.83,6.56c-4.3,0-7.8-2.93-7.8-6.56c0-3.6,3.5-6.53,7.8-6.53
		C483.41,361.77,486.91,364.71,486.91,368.31L486.91,368.31z M486.91,368.31"/>
	<path class="st3" d="M465.25,368.31c0,3.63-3.5,6.56-7.83,6.56c-4.33,0-7.83-2.93-7.83-6.56c0-3.6,3.5-6.53,7.83-6.53
		C461.75,361.77,465.25,364.71,465.25,368.31L465.25,368.31z M465.25,368.31"/>
	<path class="st1" d="M388.18,253.87h98.14c7.8,0,14.44-5.53,14.44-12.09v-9.6c0-6.53-6.63-12.09-14.44-12.09h-98.14
		c-7.83,0-14.47,5.56-14.47,12.09v9.6C373.71,248.34,380.35,253.87,388.18,253.87L388.18,253.87z M388.18,297.72h98.14
		c7.8,0,14.44-5.53,14.44-12.09v-9.57c0-6.56-6.63-12.12-14.44-12.12h-98.14c-7.83,0-14.47,5.56-14.47,12.12v9.57
		C373.71,292.2,380.35,297.72,388.18,297.72L388.18,297.72z M388.18,297.72"/>
	<path class="st2" d="M486.91,281.11c0,3.6-3.5,6.53-7.83,6.53c-4.3,0-7.8-2.93-7.8-6.53c0-3.63,3.5-6.56,7.8-6.56
		C483.41,274.55,486.91,277.48,486.91,281.11L486.91,281.11z M486.91,281.11"/>
	<path class="st3" d="M465.25,281.11c0,3.6-3.5,6.53-7.83,6.53c-4.33,0-7.83-2.93-7.83-6.53c0-3.63,3.5-6.56,7.83-6.56
		C461.75,274.55,465.25,277.48,465.25,281.11L465.25,281.11z M465.25,281.11"/>
	<path class="st2" d="M486.91,237.22c0,3.63-3.5,6.56-7.83,6.56c-4.3,0-7.8-2.93-7.8-6.56c0-3.6,3.5-6.53,7.8-6.53
		C483.41,230.69,486.91,233.62,486.91,237.22L486.91,237.22z M486.91,237.22"/>
	<path class="st3" d="M465.25,237.22c0,3.63-3.5,6.56-7.83,6.56c-4.33,0-7.83-2.93-7.83-6.56c0-3.6,3.5-6.53,7.83-6.53
		C461.75,230.69,465.25,233.62,465.25,237.22L465.25,237.22z M465.25,237.22"/>
	<path class="st1" d="M324.35,341.61H226.2c-7.8,0-14.44-5.56-14.44-12.12v-9.57c0-6.56,6.63-12.12,14.44-12.12h98.14
		c7.83,0,14.47,5.56,14.47,12.12v9.57C338.82,336.05,332.18,341.61,324.35,341.61L324.35,341.61z M324.35,341.61"/>
	<path class="st2" d="M241.26,324.45c0,3.63-3.5,6.56-7.8,6.56c-4.33,0-7.83-2.93-7.83-6.56c0-3.62,3.5-6.56,7.83-6.56
		C237.75,317.89,241.26,320.83,241.26,324.45L241.26,324.45z M241.26,324.45"/>
	<path class="st3" d="M262.94,324.45c0,3.63-3.5,6.56-7.83,6.56c-4.33,0-7.83-2.93-7.83-6.56c0-3.62,3.5-6.56,7.83-6.56
		C259.44,317.89,262.94,320.83,262.94,324.45L262.94,324.45z M262.94,324.45"/>
	<rect x="226.82" y="250.34" class="st0" width="96.95" height="17.65"/>
	<path class="st1" d="M324.35,385.47H226.2c-7.8,0-14.44-5.56-14.44-12.12v-9.57c0-6.56,6.63-12.09,14.44-12.09h98.14
		c7.83,0,14.47,5.53,14.47,12.09v9.57C338.82,379.91,332.18,385.47,324.35,385.47L324.35,385.47z M324.35,385.47"/>
	<path class="st2" d="M241.26,368.31c0,3.63-3.5,6.56-7.8,6.56c-4.33,0-7.83-2.93-7.83-6.56c0-3.6,3.5-6.53,7.83-6.53
		C237.75,361.77,241.26,364.71,241.26,368.31L241.26,368.31z M241.26,368.31"/>
	<path class="st3" d="M262.94,368.31c0,3.63-3.5,6.56-7.83,6.56c-4.33,0-7.83-2.93-7.83-6.56c0-3.6,3.5-6.53,7.83-6.53
		C259.44,361.77,262.94,364.71,262.94,368.31L262.94,368.31z M262.94,368.31"/>
	<path class="st1" d="M324.35,253.87H226.2c-7.8,0-14.44-5.53-14.44-12.09v-9.6c0-6.53,6.63-12.09,14.44-12.09h98.14
		c7.83,0,14.47,5.56,14.47,12.09v9.6C338.82,248.34,332.18,253.87,324.35,253.87L324.35,253.87z M324.35,297.72H226.2
		c-7.8,0-14.44-5.53-14.44-12.09v-9.57c0-6.56,6.63-12.12,14.44-12.12h98.14c7.83,0,14.47,5.56,14.47,12.12v9.57
		C338.82,292.2,332.18,297.72,324.35,297.72L324.35,297.72z M324.35,297.72"/>
	<path class="st2" d="M241.26,281.11c0,3.6-3.5,6.53-7.8,6.53c-4.33,0-7.83-2.93-7.83-6.53c0-3.63,3.5-6.56,7.83-6.56
		C237.75,274.55,241.26,277.48,241.26,281.11L241.26,281.11z M241.26,281.11"/>
	<path class="st3" d="M262.94,281.11c0,3.6-3.5,6.53-7.83,6.53c-4.33,0-7.83-2.93-7.83-6.53c0-3.63,3.5-6.56,7.83-6.56
		C259.44,274.55,262.94,277.48,262.94,281.11L262.94,281.11z M262.94,281.11"/>
	<path class="st2" d="M241.26,237.22c0,3.63-3.5,6.56-7.8,6.56c-4.33,0-7.83-2.93-7.83-6.56c0-3.6,3.5-6.53,7.83-6.53
		C237.75,230.69,241.26,233.62,241.26,237.22L241.26,237.22z M241.26,237.22"/>
	<path class="st3" d="M262.94,237.22c0,3.63-3.5,6.56-7.83,6.56c-4.33,0-7.83-2.93-7.83-6.56c0-3.6,3.5-6.53,7.83-6.53
		C259.44,230.69,262.94,233.62,262.94,237.22L262.94,237.22z M262.94,237.22"/>
	<path class="st0" d="M456.81,302.77H255.72c-5.44,0-9.65,3.55-9.65,8.08v104.87c0,4.53,4.21,8.05,9.65,8.05h200.5
		c5.41,0,9.61-3.53,9.61-8.05V311.36C466.45,306.8,462.24,302.77,456.81,302.77L456.81,302.77z M456.81,302.77"/>
	<rect x="258.73" y="312.85" class="st1" width="195.68" height="91.26"/>
	<path class="st2" d="M275.6,317.4c-0.61,0-1.23,0-1.23,0.49c-0.58,0.51-0.58,1.52,0,2.52l6.02,5.04l-6.02,5.04
		c-0.58,0.51-0.58,1.52,0,2.52c0.61,0.51,1.81,0.51,3.01,0l7.83-6.53c0.62-0.51,0.62-1.52,0-2.52l-7.83-6.56
		C276.8,317.4,276.18,317.4,275.6,317.4L275.6,317.4z M275.6,317.4"/>
	<path class="st3" d="M293.05,321.93c-1.2,0-1.81,0.52-1.81,1.52c0,1,0.62,1.52,1.81,1.52h10.84c1.2,0,1.81-0.52,1.81-1.52
		c0-1-0.61-1.52-1.81-1.52H293.05z M293.05,321.93"/>
</g>
</svg>
