<?xml version="1.0" encoding="utf-8"?>
<!-- Generator: Adobe Illustrator 25.2.1, SVG Export Plug-In . SVG Version: 6.00 Build 0)  -->
<svg version="1.1" id="Layer_1" xmlns="http://www.w3.org/2000/svg" xmlns:xlink="http://www.w3.org/1999/xlink" x="0px" y="0px"
	 viewBox="0 0 1256.88 1662.33" style="enable-background:new 0 0 1256.88 1662.33;" xml:space="preserve">
<style type="text/css">
	.st0{fill:#10233C;}
	.st1{fill:#162F50;}
	.st2{fill:#DCDCDD;}
	.st3{fill:#F8AD00;}
	.st4{fill:#326EBD;}
	.st5{fill:none;stroke:#F8AD00;stroke-width:8;stroke-miterlimit:10;}
	.st6{clip-path:url(#SVGID_2_);}
	.st7{clip-path:url(#SVGID_4_);}
	.st8{font-family:'Arial-BoldMT';}
	.st9{font-size:148.9965px;}
</style>
<path class="st0" d="M950.93,161.51l-757.65-5.97c-0.5,0-0.65-0.69-0.21-0.99l126.38-88.21c20.42-13.96,43.45-21.29,66.88-21.29
	h371.29c23.78,0,47.14,7.55,67.78,21.91l129.08,91.43C954.92,158.69,951.43,161.52,950.93,161.51z"/>
<path class="st1" d="M960.08,1541.76H183.19c-6.6,0-12-5.4-12-12V156.98c0-6.6,5.4-12,12-12h776.89c6.6,0,12,5.4,12,12v1372.78
	C972.08,1536.36,966.68,1541.76,960.08,1541.76z"/>
<path class="st2" d="M899.61,366.93H243.66c-5.18,0-9.41-4.24-9.41-9.41V284.5c0-5.18,4.24-9.41,9.41-9.41h655.94
	c5.18,0,9.41,4.24,9.41,9.41v73.02C909.02,362.69,904.78,366.93,899.61,366.93z"/>
<path class="st2" d="M899.61,523.83H243.66c-5.18,0-9.41-4.24-9.41-9.41V441.4c0-5.18,4.24-9.41,9.41-9.41h655.94
	c5.18,0,9.41,4.24,9.41,9.41v73.02C909.02,519.59,904.78,523.83,899.61,523.83z"/>
<path class="st2" d="M899.61,680.73H243.66c-5.18,0-9.41-4.24-9.41-9.41V598.3c0-5.18,4.24-9.41,9.41-9.41h655.94
	c5.18,0,9.41,4.24,9.41,9.41v73.02C909.02,676.49,904.78,680.73,899.61,680.73z"/>
<path class="st2" d="M899.61,837.63H243.66c-5.18,0-9.41-4.24-9.41-9.41V755.2c0-5.18,4.24-9.41,9.41-9.41h655.94
	c5.18,0,9.41,4.24,9.41,9.41v73.02C909.02,833.39,904.78,837.63,899.61,837.63z"/>
<path class="st2" d="M899.61,994.53H243.66c-5.18,0-9.41-4.24-9.41-9.41V912.1c0-5.18,4.24-9.41,9.41-9.41h655.94
	c5.18,0,9.41,4.24,9.41,9.41v73.02C909.02,990.29,904.78,994.53,899.61,994.53z"/>
<path class="st2" d="M899.61,1151.42H243.66c-5.18,0-9.41-4.24-9.41-9.41v-73.02c0-5.18,4.24-9.41,9.41-9.41h655.94
	c5.18,0,9.41,4.24,9.41,9.41v73.02C909.02,1147.19,904.78,1151.42,899.61,1151.42z"/>
<path class="st2" d="M899.61,1308.32H243.66c-5.18,0-9.41-4.24-9.41-9.41v-73.02c0-5.18,4.24-9.41,9.41-9.41h655.94
	c5.18,0,9.41,4.24,9.41,9.41v73.02C909.02,1304.09,904.78,1308.32,899.61,1308.32z"/>
<path class="st3" d="M736.02,355.45h-35.53c-3.24,0-5.88-2.65-5.88-5.88v-53.29c0-3.24,2.65-5.88,5.88-5.88h35.53
	c3.24,0,5.88,2.65,5.88,5.88v53.29C741.9,352.8,739.26,355.45,736.02,355.45z"/>
<path class="st3" d="M802.24,355.45h-35.53c-3.24,0-5.88-2.65-5.88-5.88v-53.29c0-3.24,2.65-5.88,5.88-5.88h35.53
	c3.24,0,5.88,2.65,5.88,5.88v53.29C808.12,352.8,805.47,355.45,802.24,355.45z"/>
<path class="st3" d="M865.3,355.45h-35.53c-3.24,0-5.88-2.65-5.88-5.88v-53.29c0-3.24,2.65-5.88,5.88-5.88h35.53
	c3.24,0,5.88,2.65,5.88,5.88v53.29C871.18,352.8,868.53,355.45,865.3,355.45z"/>
<path class="st3" d="M739.17,512.35h-35.53c-3.24,0-5.88-2.65-5.88-5.88v-53.29c0-3.24,2.65-5.88,5.88-5.88h35.53
	c3.24,0,5.88,2.65,5.88,5.88v53.29C745.06,509.7,742.41,512.35,739.17,512.35z"/>
<path class="st3" d="M805.39,512.35h-35.53c-3.24,0-5.88-2.65-5.88-5.88v-53.29c0-3.24,2.65-5.88,5.88-5.88h35.53
	c3.24,0,5.88,2.65,5.88,5.88v53.29C811.27,509.7,808.62,512.35,805.39,512.35z"/>
<path class="st3" d="M868.45,512.35h-35.53c-3.24,0-5.88-2.65-5.88-5.88v-53.29c0-3.24,2.65-5.88,5.88-5.88h35.53
	c3.24,0,5.88,2.65,5.88,5.88v53.29C874.33,509.7,871.69,512.35,868.45,512.35z"/>
<path class="st3" d="M739.17,669.25h-35.53c-3.24,0-5.88-2.65-5.88-5.88v-53.29c0-3.24,2.65-5.88,5.88-5.88h35.53
	c3.24,0,5.88,2.65,5.88,5.88v53.29C745.06,666.6,742.41,669.25,739.17,669.25z"/>
<path class="st3" d="M805.39,669.25h-35.53c-3.24,0-5.88-2.65-5.88-5.88v-53.29c0-3.24,2.65-5.88,5.88-5.88h35.53
	c3.24,0,5.88,2.65,5.88,5.88v53.29C811.27,666.6,808.62,669.25,805.39,669.25z"/>
<path class="st3" d="M868.45,669.25h-35.53c-3.24,0-5.88-2.65-5.88-5.88v-53.29c0-3.24,2.65-5.88,5.88-5.88h35.53
	c3.24,0,5.88,2.65,5.88,5.88v53.29C874.33,666.6,871.69,669.25,868.45,669.25z"/>
<path class="st3" d="M739.17,826.15h-35.53c-3.24,0-5.88-2.65-5.88-5.88v-53.29c0-3.24,2.65-5.88,5.88-5.88h35.53
	c3.24,0,5.88,2.65,5.88,5.88v53.29C745.06,823.5,742.41,826.15,739.17,826.15z"/>
<path class="st3" d="M805.39,826.15h-35.53c-3.24,0-5.88-2.65-5.88-5.88v-53.29c0-3.24,2.65-5.88,5.88-5.88h35.53
	c3.24,0,5.88,2.65,5.88,5.88v53.29C811.27,823.5,808.62,826.15,805.39,826.15z"/>
<path class="st3" d="M868.45,826.15h-35.53c-3.24,0-5.88-2.65-5.88-5.88v-53.29c0-3.24,2.65-5.88,5.88-5.88h35.53
	c3.24,0,5.88,2.65,5.88,5.88v53.29C874.33,823.5,871.69,826.15,868.45,826.15z"/>
<path class="st3" d="M739.17,983.05h-35.53c-3.24,0-5.88-2.65-5.88-5.88v-53.29c0-3.24,2.65-5.88,5.88-5.88h35.53
	c3.24,0,5.88,2.65,5.88,5.88v53.29C745.06,980.4,742.41,983.05,739.17,983.05z"/>
<path class="st3" d="M805.39,983.05h-35.53c-3.24,0-5.88-2.65-5.88-5.88v-53.29c0-3.24,2.65-5.88,5.88-5.88h35.53
	c3.24,0,5.88,2.65,5.88,5.88v53.29C811.27,980.4,808.62,983.05,805.39,983.05z"/>
<path class="st3" d="M868.45,983.05h-35.53c-3.24,0-5.88-2.65-5.88-5.88v-53.29c0-3.24,2.65-5.88,5.88-5.88h35.53
	c3.24,0,5.88,2.65,5.88,5.88v53.29C874.33,980.4,871.69,983.05,868.45,983.05z"/>
<path class="st3" d="M739.17,1139.94h-35.53c-3.24,0-5.88-2.65-5.88-5.88v-53.29c0-3.24,2.65-5.88,5.88-5.88h35.53
	c3.24,0,5.88,2.65,5.88,5.88v53.29C745.06,1137.3,742.41,1139.94,739.17,1139.94z"/>
<path class="st3" d="M805.39,1139.94h-35.53c-3.24,0-5.88-2.65-5.88-5.88v-53.29c0-3.24,2.65-5.88,5.88-5.88h35.53
	c3.24,0,5.88,2.65,5.88,5.88v53.29C811.27,1137.3,808.62,1139.94,805.39,1139.94z"/>
<path class="st3" d="M868.45,1139.94h-35.53c-3.24,0-5.88-2.65-5.88-5.88v-53.29c0-3.24,2.65-5.88,5.88-5.88h35.53
	c3.24,0,5.88,2.65,5.88,5.88v53.29C874.33,1137.3,871.69,1139.94,868.45,1139.94z"/>
<path class="st3" d="M739.17,1296.84h-35.53c-3.24,0-5.88-2.65-5.88-5.88v-53.29c0-3.24,2.65-5.88,5.88-5.88h35.53
	c3.24,0,5.88,2.65,5.88,5.88v53.29C745.06,1294.2,742.41,1296.84,739.17,1296.84z"/>
<path class="st3" d="M805.39,1296.84h-35.53c-3.24,0-5.88-2.65-5.88-5.88v-53.29c0-3.24,2.65-5.88,5.88-5.88h35.53
	c3.24,0,5.88,2.65,5.88,5.88v53.29C811.27,1294.2,808.62,1296.84,805.39,1296.84z"/>
<path class="st3" d="M868.45,1296.84h-35.53c-3.24,0-5.88-2.65-5.88-5.88v-53.29c0-3.24,2.65-5.88,5.88-5.88h35.53
	c3.24,0,5.88,2.65,5.88,5.88v53.29C874.33,1294.2,871.69,1296.84,868.45,1296.84z"/>
<path class="st4" d="M397.44,340.14H276.01c-2.16,0-3.92-1.76-3.92-3.92V305.8c0-2.16,1.76-3.92,3.92-3.92h121.43
	c2.16,0,3.92,1.76,3.92,3.92v30.42C401.37,338.38,399.6,340.14,397.44,340.14z"/>
<path class="st4" d="M397.44,497.04H276.01c-2.16,0-3.92-1.76-3.92-3.92V462.7c0-2.16,1.76-3.92,3.92-3.92h121.43
	c2.16,0,3.92,1.76,3.92,3.92v30.42C401.37,495.28,399.6,497.04,397.44,497.04z"/>
<path class="st4" d="M397.44,653.94H276.01c-2.16,0-3.92-1.77-3.92-3.92v-30.42c0-2.16,1.76-3.92,3.92-3.92h121.43
	c2.16,0,3.92,1.77,3.92,3.92v30.42C401.37,652.18,399.6,653.94,397.44,653.94z"/>
<path class="st4" d="M397.44,810.84H276.01c-2.16,0-3.92-1.76-3.92-3.92v-30.42c0-2.16,1.76-3.92,3.92-3.92h121.43
	c2.16,0,3.92,1.76,3.92,3.92v30.42C401.37,809.07,399.6,810.84,397.44,810.84z"/>
<path class="st4" d="M397.44,967.74H276.01c-2.16,0-3.92-1.76-3.92-3.92v-30.42c0-2.16,1.76-3.92,3.92-3.92h121.43
	c2.16,0,3.92,1.76,3.92,3.92v30.42C401.37,965.97,399.6,967.74,397.44,967.74z"/>
<path class="st4" d="M397.44,1124.64H276.01c-2.16,0-3.92-1.76-3.92-3.92v-30.42c0-2.16,1.76-3.92,3.92-3.92h121.43
	c2.16,0,3.92,1.76,3.92,3.92v30.42C401.37,1122.87,399.6,1124.64,397.44,1124.64z"/>
<path class="st4" d="M397.44,1285.36H276.01c-2.16,0-3.92-1.77-3.92-3.92v-30.42c0-2.16,1.76-3.92,3.92-3.92h121.43
	c2.16,0,3.92,1.77,3.92,3.92v30.42C401.37,1283.6,399.6,1285.36,397.44,1285.36z"/>
<path class="st5" d="M972.08,477.91h90.01c17.99,0,32.57,24.54,32.57,54.82v633.72c0,30.27-14.58,54.82-32.57,54.82h-90.01"/>
<path class="st5" d="M972.08,298.05h154.93c26.94,0,48.79,29.8,48.79,66.56v544.23c0,36.76-21.84,66.56-48.79,66.56H972.08"/>
<g>
	<g>
		<defs>
			<rect id="SVGID_1_" x="481.19" y="1373.38" width="180.88" height="195.38"/>
		</defs>
		<clipPath id="SVGID_2_">
			<use xlink:href="#SVGID_1_"  style="overflow:visible;"/>
		</clipPath>
		<g class="st6">
			<defs>
				<rect id="SVGID_3_" x="481.19" y="1373.38" width="180.88" height="195.38"/>
			</defs>
			<clipPath id="SVGID_4_">
				<use xlink:href="#SVGID_3_"  style="overflow:visible;"/>
			</clipPath>
			<g class="st7">
				<text transform="matrix(0.7785 0 0 1.0489 488.7858 1525.9993)" class="st3 st8 st9">&lt;/&gt;</text>
			</g>
		</g>
	</g>
</g>
</svg>
