<?xml version="1.0" encoding="utf-8"?>
<!-- Generator: Adobe Illustrator 25.2.1, SVG Export Plug-In . SVG Version: 6.00 Build 0)  -->
<svg version="1.1" id="Capa_1" xmlns="http://www.w3.org/2000/svg" xmlns:xlink="http://www.w3.org/1999/xlink" x="0px" y="0px"
	 viewBox="0 0 2122 2122" style="enable-background:new 0 0 2122 2122;" xml:space="preserve">
<style type="text/css">
	.st0{fill:#F8AD03;stroke:#030507;stroke-width:14.967;stroke-linecap:round;stroke-linejoin:round;stroke-miterlimit:10;}
	.st1{fill:#E3ECC4;stroke:#030507;stroke-width:14.967;stroke-linecap:round;stroke-linejoin:round;stroke-miterlimit:10;}
	.st2{fill:#FFFFFF;stroke:#030507;stroke-width:14.967;stroke-linecap:round;stroke-linejoin:round;stroke-miterlimit:10;}
	.st3{fill:#0C4B67;stroke:#010202;stroke-width:14.967;stroke-linecap:round;stroke-linejoin:round;stroke-miterlimit:10;}
	.st4{fill:#E3ECC4;stroke:#010202;stroke-width:14.967;stroke-linecap:round;stroke-linejoin:round;stroke-miterlimit:10;}
	.st5{fill:#FFFFFF;stroke:#010202;stroke-width:14.967;stroke-linecap:round;stroke-linejoin:round;stroke-miterlimit:10;}
	.st6{fill:#0D4B67;stroke:#010202;stroke-width:14.967;stroke-linecap:round;stroke-linejoin:round;stroke-miterlimit:10;}
	.st7{fill:#163050;stroke:#010202;stroke-width:14.967;stroke-linecap:round;stroke-linejoin:round;stroke-miterlimit:10;}
	.st8{fill:#15233B;stroke:#010202;stroke-width:14.967;stroke-linecap:round;stroke-linejoin:round;stroke-miterlimit:10;}
	.st9{fill:#FAC13E;stroke:#010202;stroke-width:14.967;stroke-linecap:round;stroke-linejoin:round;stroke-miterlimit:10;}
	.st10{fill:#FABB2E;stroke:#010202;stroke-width:14.967;stroke-linecap:round;stroke-linejoin:round;stroke-miterlimit:10;}
</style>
<g>
	<g>
		<path class="st0" d="M1041.15,526.57c0-41.51,33.75-75.29,75.3-75.29H599.4c-41.51,0-75.29,33.77-75.29,75.29
			c0,41.52,33.78,75.3,75.29,75.3h517.05C1074.9,601.87,1041.15,568.09,1041.15,526.57z"/>
		<path class="st1" d="M744.88,526.57c0-41.51,33.78-75.29,75.3-75.29H685.59c-41.52,0-75.27,33.77-75.27,75.29
			c0,41.52,33.75,75.3,75.27,75.3h134.59C778.66,601.87,744.88,568.09,744.88,526.57z"/>
		<g>
			<path class="st2" d="M1573.11,466.2h-456.66c-33.34,0-60.39,27.02-60.39,60.36c0,33.33,27.05,60.36,60.39,60.36h456.66V466.2z"/>
		</g>
		<g>
			<path class="st0" d="M1573.11,601.87h-456.66c-41.55,0-75.3-33.78-75.3-75.3c0-41.51,33.75-75.29,75.3-75.29h456.66
				c8.23,0,14.91,6.69,14.91,14.93c0,8.25-6.67,14.93-14.91,14.93h-456.66c-25.07,0-45.44,20.39-45.44,45.43
				c0,25.06,20.37,45.43,45.44,45.43h456.66c8.23,0,14.91,6.69,14.91,14.93C1588.02,595.17,1581.34,601.87,1573.11,601.87z"/>
		</g>
	</g>
	<g>
		<path class="st3" d="M1165.78,1123.14c0-56.16,45.69-101.84,101.85-101.84H317.75c-56.17,0-101.85,45.69-101.85,101.84
			c0,56.15,45.68,101.81,101.85,101.81h949.88C1211.47,1224.96,1165.78,1179.29,1165.78,1123.14z"/>
		<g>
			<g>
				<path class="st4" d="M364.46,1123.14c0-56.16,45.69-101.84,101.82-101.84h-64.74c-56.16,0-101.82,45.69-101.82,101.84
					c0,56.15,45.66,101.81,101.82,101.81h64.74C410.15,1224.96,364.46,1179.29,364.46,1123.14z"/>
				<path class="st4" d="M465.56,1123.14c0-56.16,45.66-101.84,101.82-101.84h-64.76c-56.15,0-101.83,45.69-101.83,101.84
					c0,56.15,45.68,101.81,101.83,101.81h64.76C511.22,1224.96,465.56,1179.29,465.56,1123.14z"/>
			</g>
		</g>
		<g>
			<path class="st5" d="M1885.21,1041.52h-617.58c-45.1,0-81.66,36.54-81.66,81.63c0,45.1,36.56,81.62,81.66,81.62h617.58V1041.52z"
				/>
		</g>
		<g>
			<path class="st6" d="M1885.21,1224.96h-617.58c-56.16,0-101.85-45.66-101.85-101.81c0-56.16,45.69-101.84,101.85-101.84h617.58
				c11.15,0,20.2,9.06,20.2,20.21c0,11.13-9.05,20.19-20.2,20.19h-617.58c-33.88,0-61.46,27.55-61.46,61.43
				c0,33.89,27.58,61.43,61.46,61.43h617.58c11.15,0,20.2,9.04,20.2,20.18C1905.41,1215.93,1896.36,1224.96,1885.21,1224.96z"/>
		</g>
	</g>
	<g>
		<path class="st7" d="M1128.03,659.67c0-31.89,25.94-57.81,57.82-57.81h-639.8c-31.87,0-57.8,25.92-57.8,57.81
			c0,31.87,25.93,57.82,57.8,57.82h639.8C1153.96,717.5,1128.03,691.55,1128.03,659.67z"/>
		<path class="st4" d="M579.9,659.67c0-31.89,25.92-57.81,57.81-57.81h-36.26c-31.88,0-57.84,25.92-57.84,57.81
			c0,31.87,25.96,57.82,57.84,57.82h36.26C605.82,717.5,579.9,691.55,579.9,659.67z"/>
		<g>
			<path class="st5" d="M1621.59,613.32h-435.75c-25.61,0-46.35,20.75-46.35,46.36c0,25.6,20.75,46.34,46.35,46.34h435.75V613.32z"
				/>
		</g>
		<g>
			<path class="st7" d="M1621.59,717.5h-435.75c-31.88,0-57.82-25.95-57.82-57.82c0-31.89,25.94-57.81,57.82-57.81h435.75
				c6.34,0,11.48,5.15,11.48,11.45c0,6.35-5.14,11.47-11.48,11.47h-435.75c-19.23,0-34.88,15.65-34.88,34.88
				c0,19.23,15.65,34.88,34.88,34.88h435.75c6.34,0,11.48,5.13,11.48,11.46C1633.07,712.37,1627.94,717.5,1621.59,717.5z"/>
		</g>
	</g>
	<g>
		<path class="st8" d="M1091.53,1312.48c0-48.25,39.25-87.53,87.51-87.53H391.36c-48.25,0-87.5,39.27-87.5,87.53
			c0,48.24,39.25,87.49,87.5,87.49h787.69C1130.78,1399.97,1091.53,1360.72,1091.53,1312.48z"/>
		<g>
			<path class="st4" d="M450.62,1312.48c0-48.25,39.27-87.53,87.52-87.53h-89.35c-48.25,0-87.5,39.27-87.5,87.53
				c0,48.24,39.25,87.49,87.5,87.49h89.35C489.89,1399.97,450.62,1360.72,450.62,1312.48z"/>
			<path class="st4" d="M927.97,1312.48c0-48.25,39.25-87.53,87.5-87.53h-53.61c-48.22,0-87.47,39.27-87.47,87.53
				c0,48.24,39.25,87.49,87.47,87.49h53.61C967.22,1399.97,927.97,1360.72,927.97,1312.48z"/>
		</g>
		<g>
			<path class="st5" d="M1753.09,1242.33h-574.05c-38.73,0-70.14,31.4-70.14,70.15c0,38.73,31.41,70.14,70.14,70.14h574.05V1242.33z
				"/>
		</g>
		<g>
			<path class="st8" d="M1753.09,1399.97h-574.05c-48.26,0-87.51-39.25-87.51-87.49c0-48.25,39.25-87.53,87.51-87.53h574.05
				c9.56,0,17.33,7.79,17.33,17.37c0,9.59-7.78,17.35-17.33,17.35h-574.05c-29.1,0-52.79,23.68-52.79,52.8
				c0,29.11,23.7,52.78,52.79,52.78h574.05c9.56,0,17.33,7.77,17.33,17.36C1770.43,1392.21,1762.65,1399.97,1753.09,1399.97z"/>
		</g>
	</g>
	<g>
		<path class="st5" d="M1673.63,1414.91h-456.67c-33.33,0-60.38,7.55-60.38,120.1c0,112.55,27.06,120.09,60.38,120.09h456.67
			V1414.91z"/>
		<g>
			<g>
				<path class="st9" d="M1673.63,1670.04h-456.67c-15.5,0-38.91,0-54.86-22.48c-14.15-19.94-20.42-54.67-20.42-112.55
					c0-57.9,6.28-92.61,20.42-112.54c15.95-22.49,39.36-22.49,54.86-22.49h456.67c8.23,0,14.91,6.68,14.91,14.94
					c0,8.25-6.67,14.94-14.91,14.94h-456.67c-17.33,0-24.54,1.48-30.52,9.89c-9.89,13.98-14.91,46.02-14.91,95.26
					c0,49.22,5.02,81.29,14.91,95.26c5.98,8.4,13.19,9.9,30.52,9.9h456.67c8.23,0,14.91,6.68,14.91,14.92
					C1688.54,1663.34,1681.86,1670.04,1673.63,1670.04z"/>
			</g>
		</g>
		<g>
			<g>
				<path class="st9" d="M1162.1,1647.56c-14.15-19.94-20.42-54.67-20.42-112.55c0-57.9,6.28-92.61,20.42-112.54
					c15.95-22.49,39.36-22.49,54.86-22.49H434.41c-15.49,0-38.91,0-54.86,22.49c-14.14,19.94-20.45,54.64-20.45,112.54
					c0,57.88,6.31,92.61,20.45,112.55c15.95,22.48,39.37,22.48,54.86,22.48h782.55C1201.46,1670.04,1178.05,1670.04,1162.1,1647.56z
					"/>
			</g>
		</g>
		<path class="st4" d="M577.7,1647.56c-14.12-19.94-20.43-54.67-20.43-112.55c0-57.9,6.31-92.61,20.43-112.54
			c15.94-22.49,39.38-22.49,54.86-22.49H540.7c-15.47,0-38.91,0-54.86,22.49c-14.14,19.94-20.43,54.64-20.43,112.54
			c0,57.88,6.29,92.61,20.43,112.55c15.95,22.48,39.39,22.48,54.86,22.48h91.86C617.07,1670.04,593.64,1670.04,577.7,1647.56z"/>
		<path class="st4" d="M1086.82,1647.56c-14.16-19.94-20.44-54.67-20.44-112.55c0-57.9,6.28-92.61,20.44-112.54
			c15.91-22.49,39.36-22.49,54.86-22.49h-45.95c-15.49,0-38.9,0-54.86,22.49c-14.11,19.94-20.43,54.64-20.43,112.54
			c0,57.88,6.32,92.61,20.43,112.55c15.96,22.48,39.37,22.48,54.86,22.48h45.95C1126.17,1670.04,1102.73,1670.04,1086.82,1647.56z"
			/>
	</g>
	<g>
		<g>
			<path class="st5" d="M1659.13,732.43h-456.65c-33.35,0-115.16,26.43-115.16,136.96c0,110.56,81.8,136.98,115.16,136.98h456.65
				V732.43z"/>
		</g>
		<g>
			<g>
				<path class="st10" d="M1659.13,1021.3h-456.65c-48.33,0-130.1-31.98-130.1-151.91c0-119.91,81.77-151.9,130.1-151.9h456.65
					c8.24,0,14.96,6.67,14.96,14.94c0,8.23-6.71,14.91-14.96,14.91h-456.65c-8,0-36.07,1.53-60.78,21.17
					c-26.18,20.76-39.44,54.71-39.44,100.88c0,46.19,13.26,80.12,39.44,100.91c24.71,19.62,52.78,21.14,60.78,21.14h456.65
					c8.24,0,14.96,6.69,14.96,14.94C1674.09,1014.62,1667.37,1021.3,1659.13,1021.3z"/>
			</g>
		</g>
		<path class="st10" d="M1072.38,869.39c0-119.91,81.77-151.9,130.1-151.9H496.89c-48.31,0-130.09,31.98-130.09,151.9
			c0,119.93,81.78,151.91,130.09,151.91h705.59C1154.15,1021.3,1072.38,989.32,1072.38,869.39z"/>
		<path class="st4" d="M554.54,869.39c0-119.91,81.77-151.9,130.1-151.9h-71.27c-48.31,0-130.06,31.98-130.06,151.9
			c0,119.93,81.75,151.91,130.06,151.91h71.27C636.31,1021.3,554.54,989.32,554.54,869.39z"/>
		<path class="st4" d="M1013.43,869.39c0-119.91,81.74-151.9,130.08-151.9h-35.63c-48.3,0-130.07,31.98-130.07,151.9
			c0,119.93,81.77,151.91,130.07,151.91h35.63C1095.17,1021.3,1013.43,989.32,1013.43,869.39z"/>
	</g>
</g>
</svg>
